<svg width="1067" height="400" viewBox="0 0 1067 400" fill="none" xmlns="http://www.w3.org/2000/svg">
<g clip-path="url(#clip0_75_3)">
<rect x="0.286865" width="1066.67" height="400" fill="white"/>
<g opacity="0.66" clip-path="url(#clip1_75_3)">
<path d="M20.3835 -28.342H-8.12292V0.173374H20.3835V-28.342Z" stroke="#DDDDDD" stroke-width="1.5"/>
<path d="M48.89 -28.342H20.3835V0.173374H48.89V-28.342Z" stroke="#DDDDDD" stroke-width="1.5"/>
<path d="M77.3965 -28.342H48.89V0.173374H77.3965V-28.342Z" fill="#E2E7F0" fill-opacity="0.3" stroke="#DDDDDD" stroke-width="1.5"/>
<path d="M105.903 -28.342H77.3965V0.173374H105.903V-28.342Z" stroke="#DDDDDD" stroke-width="1.5"/>
<path d="M134.409 -28.342H105.903V0.173374H134.409V-28.342Z" stroke="#DDDDDD" stroke-width="1.5"/>
<path d="M162.916 -28.342H134.409V0.173374H162.916V-28.342Z" stroke="#DDDDDD" stroke-width="1.5"/>
<path d="M191.422 -28.342H162.916V0.173374H191.422V-28.342Z" stroke="#DDDDDD" stroke-width="1.5"/>
<path d="M219.929 -28.342H191.422V0.173374H219.929V-28.342Z" stroke="#DDDDDD" stroke-width="1.5"/>
<path d="M248.435 -28.342H219.929V0.173374H248.435V-28.342Z" fill="#E2E7F0" fill-opacity="0.3" stroke="#DDDDDD" stroke-width="1.5"/>
<path d="M276.942 -28.342H248.435V0.173374H276.942V-28.342Z" stroke="#DDDDDD" stroke-width="1.5"/>
<path d="M305.448 -28.342H276.942V0.173374H305.448V-28.342Z" stroke="#DDDDDD" stroke-width="1.5"/>
<path d="M333.955 -28.342H305.448V0.173374H333.955V-28.342Z" stroke="#DDDDDD" stroke-width="1.5"/>
<path d="M619.019 -28.342H590.513V0.173374H619.019V-28.342Z" stroke="#DDDDDD" stroke-width="1.5"/>
<path d="M647.526 -28.342H619.019V0.173374H647.526V-28.342Z" stroke="#DDDDDD" stroke-width="1.5"/>
<path d="M676.032 -28.342H647.526V0.173374H676.032V-28.342Z" stroke="#DDDDDD" stroke-width="1.5"/>
<path d="M704.539 -28.342H676.032V0.173374H704.539V-28.342Z" stroke="#DDDDDD" stroke-width="1.5"/>
<path d="M733.045 -28.342H704.539V0.173374H733.045V-28.342Z" fill="#E2E7F0" fill-opacity="0.3" stroke="#DDDDDD" stroke-width="1.5"/>
<path d="M761.552 -28.342H733.045V0.173374H761.552V-28.342Z" stroke="#DDDDDD" stroke-width="1.5"/>
<path d="M790.058 -28.342H761.552V0.173374H790.058V-28.342Z" stroke="#DDDDDD" stroke-width="1.5"/>
<path d="M818.565 -28.342H790.058V0.173374H818.565V-28.342Z" fill="#E2E7F0" fill-opacity="0.3" stroke="#DDDDDD" stroke-width="1.5"/>
<path d="M847.071 -28.342H818.565V0.173374H847.071V-28.342Z" stroke="#DDDDDD" stroke-width="1.5"/>
<path d="M875.578 -28.342H847.071V0.173374H875.578V-28.342Z" stroke="#DDDDDD" stroke-width="1.5"/>
<path d="M904.084 -28.342H875.578V0.173374H904.084V-28.342Z" stroke="#DDDDDD" stroke-width="1.5"/>
<path d="M932.591 -28.342H904.084V0.173374H932.591V-28.342Z" stroke="#DDDDDD" stroke-width="1.5"/>
<path d="M961.097 -28.342H932.591V0.173374H961.097V-28.342Z" stroke="#DDDDDD" stroke-width="1.5"/>
<path d="M989.604 -28.342H961.097V0.173374H989.604V-28.342Z" stroke="#DDDDDD" stroke-width="1.5"/>
<path d="M1018.11 -28.342H989.604V0.173374H1018.11V-28.342Z" stroke="#DDDDDD" stroke-width="1.5"/>
<path d="M1046.62 -28.342H1018.11V0.173374H1046.62V-28.342Z" stroke="#DDDDDD" stroke-width="1.5"/>
<path d="M1075.12 -28.342H1046.62V0.173374H1075.12V-28.342Z" fill="#E2E7F0" fill-opacity="0.3" stroke="#DDDDDD" stroke-width="1.5"/>
<path d="M20.3835 0.173374H-8.12292V28.6887H20.3835V0.173374Z" stroke="#DDDDDD" stroke-width="1.5"/>
<path d="M48.89 0.173374H20.3835V28.6887H48.89V0.173374Z" stroke="#DDDDDD" stroke-width="1.5"/>
<path d="M77.3965 0.173374H48.89V28.6887H77.3965V0.173374Z" stroke="#DDDDDD" stroke-width="1.5"/>
<path d="M105.903 0.173374H77.3965V28.6887H105.903V0.173374Z" stroke="#DDDDDD" stroke-width="1.5"/>
<path d="M134.409 0.173374H105.903V28.6887H134.409V0.173374Z" stroke="#DDDDDD" stroke-width="1.5"/>
<path d="M162.916 0.173374H134.409V28.6887H162.916V0.173374Z" stroke="#DDDDDD" stroke-width="1.5"/>
<path d="M191.422 0.173374H162.916V28.6887H191.422V0.173374Z" fill="#E2E7F0" fill-opacity="0.3" stroke="#DDDDDD" stroke-width="1.5"/>
<path d="M219.929 0.173374H191.422V28.6887H219.929V0.173374Z" stroke="#DDDDDD" stroke-width="1.5"/>
<path d="M333.955 0.173374H305.448V28.6887H333.955V0.173374Z" stroke="#DDDDDD" stroke-width="1.5"/>
<path d="M362.461 0.173374H333.955V28.6887H362.461V0.173374Z" stroke="#DDDDDD" stroke-width="1.5"/>
<path d="M390.968 0.173374H362.461V28.6887H390.968V0.173374Z" stroke="#DDDDDD" stroke-width="1.5"/>
<path d="M419.474 0.173374H390.968V28.6887H419.474V0.173374Z" stroke="#DDDDDD" stroke-width="1.5"/>
<path d="M447.981 0.173374H419.474V28.6887H447.981V0.173374Z" stroke="#DDDDDD" stroke-width="1.5"/>
<path d="M476.487 0.173374H447.981V28.6887H476.487V0.173374Z" stroke="#DDDDDD" stroke-width="1.5"/>
<path d="M904.084 0.173374H875.578V28.6887H904.084V0.173374Z" stroke="#DDDDDD" stroke-width="1.5"/>
<path d="M932.591 0.173374H904.084V28.6887H932.591V0.173374Z" fill="#E2E7F0" fill-opacity="0.3" stroke="#DDDDDD" stroke-width="1.5"/>
<path d="M961.097 0.173374H932.591V28.6887H961.097V0.173374Z" stroke="#DDDDDD" stroke-width="1.5"/>
<path d="M989.604 0.173374H961.097V28.6887H989.604V0.173374Z" stroke="#DDDDDD" stroke-width="1.5"/>
<path d="M1018.11 0.173374H989.604V28.6887H1018.11V0.173374Z" stroke="#DDDDDD" stroke-width="1.5"/>
<path d="M1046.62 0.173374H1018.11V28.6887H1046.62V0.173374Z" stroke="#DDDDDD" stroke-width="1.5"/>
<path d="M1075.12 0.173374H1046.62V28.6887H1075.12V0.173374Z" stroke="#DDDDDD" stroke-width="1.5"/>
<path d="M20.3835 28.6887H-8.12292V57.204H20.3835V28.6887Z" stroke="#DDDDDD" stroke-width="1.5"/>
<path d="M48.89 28.6887H20.3835V57.204H48.89V28.6887Z" stroke="#DDDDDD" stroke-width="1.5"/>
<path d="M77.3965 28.6887H48.89V57.204H77.3965V28.6887Z" stroke="#DDDDDD" stroke-width="1.5"/>
<path d="M105.903 28.6887H77.3965V57.204H105.903V28.6887Z" stroke="#DDDDDD" stroke-width="1.5"/>
<path d="M134.409 28.6887H105.903V57.204H134.409V28.6887Z" stroke="#DDDDDD" stroke-width="1.5"/>
<path d="M162.916 28.6887H134.409V57.204H162.916V28.6887Z" stroke="#DDDDDD" stroke-width="1.5"/>
<path d="M333.955 28.6887H305.448V57.204H333.955V28.6887Z" stroke="#DDDDDD" stroke-width="1.5"/>
<path d="M619.019 28.6887H590.513V57.204H619.019V28.6887Z" stroke="#DDDDDD" stroke-width="1.5"/>
<path d="M647.526 28.6887H619.019V57.204H647.526V28.6887Z" stroke="#DDDDDD" stroke-width="1.5"/>
<path d="M676.032 28.6887H647.526V57.204H676.032V28.6887Z" stroke="#DDDDDD" stroke-width="1.5"/>
<path d="M704.539 28.6887H676.032V57.204H704.539V28.6887Z" stroke="#DDDDDD" stroke-width="1.5"/>
<path d="M733.045 28.6887H704.539V57.204H733.045V28.6887Z" stroke="#DDDDDD" stroke-width="1.5"/>
<path d="M761.552 28.6887H733.045V57.204H761.552V28.6887Z" stroke="#DDDDDD" stroke-width="1.5"/>
<path d="M790.058 28.6887H761.552V57.204H790.058V28.6887Z" stroke="#DDDDDD" stroke-width="1.5"/>
<path d="M961.097 28.6887H932.591V57.204H961.097V28.6887Z" stroke="#DDDDDD" stroke-width="1.5"/>
<path d="M989.604 28.6887H961.097V57.204H989.604V28.6887Z" stroke="#DDDDDD" stroke-width="1.5"/>
<path d="M1018.11 28.6887H989.604V57.204H1018.11V28.6887Z" stroke="#DDDDDD" stroke-width="1.5"/>
<path d="M1046.62 28.6887H1018.11V57.204H1046.62V28.6887Z" stroke="#DDDDDD" stroke-width="1.5"/>
<path d="M1075.12 28.6887H1046.62V57.204H1075.12V28.6887Z" stroke="#DDDDDD" stroke-width="1.5"/>
<path d="M20.3835 57.204H-8.12292V85.7193H20.3835V57.204Z" stroke="#DDDDDD" stroke-width="1.5"/>
<path d="M48.89 57.204H20.3835V85.7193H48.89V57.204Z" stroke="#DDDDDD" stroke-width="1.5"/>
<path d="M77.3965 57.204H48.89V85.7193H77.3965V57.204Z" stroke="#DDDDDD" stroke-width="1.5"/>
<path d="M105.903 57.204H77.3965V85.7193H105.903V57.204Z" stroke="#DDDDDD" stroke-width="1.5"/>
<path d="M134.409 57.204H105.903V85.7193H134.409V57.204Z" stroke="#DDDDDD" stroke-width="1.5"/>
<path d="M162.916 57.204H134.409V85.7193H162.916V57.204Z" stroke="#DDDDDD" stroke-width="1.5"/>
<path d="M191.422 57.204H162.916V85.7193H191.422V57.204Z" stroke="#DDDDDD" stroke-width="1.5"/>
<path d="M219.929 57.204H191.422V85.7193H219.929V57.204Z" stroke="#DDDDDD" stroke-width="1.5"/>
<path d="M790.058 57.204H761.552V85.7193H790.058V57.204Z" stroke="#DDDDDD" stroke-width="1.5"/>
<path d="M847.071 57.204H818.565V85.7193H847.071V57.204Z" fill="#E2E7F0" fill-opacity="0.3" stroke="#DDDDDD" stroke-width="1.5"/>
<path d="M875.578 57.204H847.071V85.7193H875.578V57.204Z" stroke="#DDDDDD" stroke-width="1.5"/>
<path d="M904.084 57.204H875.578V85.7193H904.084V57.204Z" stroke="#DDDDDD" stroke-width="1.5"/>
<path d="M932.591 57.204H904.084V85.7193H932.591V57.204Z" stroke="#DDDDDD" stroke-width="1.5"/>
<path d="M961.097 57.204H932.591V85.7193H961.097V57.204Z" stroke="#DDDDDD" stroke-width="1.5"/>
<path d="M989.604 57.204H961.097V85.7193H989.604V57.204Z" fill="#E2E7F0" fill-opacity="0.3" stroke="#DDDDDD" stroke-width="1.5"/>
<path d="M1018.11 57.204H989.604V85.7193H1018.11V57.204Z" stroke="#DDDDDD" stroke-width="1.5"/>
<path d="M1046.62 57.204H1018.11V85.7193H1046.62V57.204Z" stroke="#DDDDDD" stroke-width="1.5"/>
<path d="M1075.12 57.204H1046.62V85.7193H1075.12V57.204Z" fill="#E2E7F0" fill-opacity="0.3" stroke="#DDDDDD" stroke-width="1.5"/>
<path d="M20.3835 85.7193H-8.12292V114.235H20.3835V85.7193Z" stroke="#DDDDDD" stroke-width="1.5"/>
<path d="M48.89 85.7193H20.3835V114.235H48.89V85.7193Z" fill="#E2E7F0" fill-opacity="0.3" stroke="#DDDDDD" stroke-width="1.5"/>
<path d="M77.3965 85.7193H48.89V114.235H77.3965V85.7193Z" stroke="#DDDDDD" stroke-width="1.5"/>
<path d="M191.422 85.7193H162.916V114.235H191.422V85.7193Z" fill="#E2E7F0" fill-opacity="0.3" stroke="#DDDDDD" stroke-width="1.5"/>
<path d="M219.929 85.7193H191.422V114.235H219.929V85.7193Z" stroke="#DDDDDD" stroke-width="1.5"/>
<path d="M276.942 85.7193H248.435V114.235H276.942V85.7193Z" stroke="#DDDDDD" stroke-width="1.5"/>
<path d="M790.058 85.7193H761.552V114.235H790.058V85.7193Z" stroke="#DDDDDD" stroke-width="1.5"/>
<path d="M818.565 85.7193H790.058V114.235H818.565V85.7193Z" stroke="#DDDDDD" stroke-width="1.5"/>
<path d="M904.084 85.7193H875.578V114.235H904.084V85.7193Z" stroke="#DDDDDD" stroke-width="1.5"/>
<path d="M932.591 85.7193H904.084V114.235H932.591V85.7193Z" stroke="#DDDDDD" stroke-width="1.5"/>
<path d="M961.097 85.7193H932.591V114.235H961.097V85.7193Z" stroke="#DDDDDD" stroke-width="1.5"/>
<path d="M1075.12 85.7193H1046.62V114.235H1075.12V85.7193Z" stroke="#DDDDDD" stroke-width="1.5"/>
<path d="M20.3835 114.235H-8.12292V142.75H20.3835V114.235Z" stroke="#DDDDDD" stroke-width="1.5"/>
<path d="M48.89 114.235H20.3835V142.75H48.89V114.235Z" stroke="#DDDDDD" stroke-width="1.5"/>
<path d="M77.3965 114.235H48.89V142.75H77.3965V114.235Z" stroke="#DDDDDD" stroke-width="1.5"/>
<path d="M105.903 114.235H77.3965V142.75H105.903V114.235Z" stroke="#DDDDDD" stroke-width="1.5"/>
<path d="M134.409 114.235H105.903V142.75H134.409V114.235Z" stroke="#DDDDDD" stroke-width="1.5"/>
<path d="M162.916 114.235H134.409V142.75H162.916V114.235Z" stroke="#DDDDDD" stroke-width="1.5"/>
<path d="M305.448 114.235H276.942V142.75H305.448V114.235Z" stroke="#DDDDDD" stroke-width="1.5"/>
<path d="M333.955 114.235H305.448V142.75H333.955V114.235Z" stroke="#DDDDDD" stroke-width="1.5"/>
<path d="M619.019 114.235H590.513V142.75H619.019V114.235Z" stroke="#DDDDDD" stroke-width="1.5"/>
<path d="M647.526 114.235H619.019V142.75H647.526V114.235Z" stroke="#DDDDDD" stroke-width="1.5"/>
<path d="M676.032 114.235H647.526V142.75H676.032V114.235Z" stroke="#DDDDDD" stroke-width="1.5"/>
<path d="M704.539 114.235H676.032V142.75H704.539V114.235Z" stroke="#DDDDDD" stroke-width="1.5"/>
<path d="M733.045 114.235H704.539V142.75H733.045V114.235Z" stroke="#DDDDDD" stroke-width="1.5"/>
<path d="M761.552 114.235H733.045V142.75H761.552V114.235Z" stroke="#DDDDDD" stroke-width="1.5"/>
<path d="M818.565 114.235H790.058V142.75H818.565V114.235Z" stroke="#DDDDDD" stroke-width="1.5"/>
<path d="M847.071 114.235H818.565V142.75H847.071V114.235Z" fill="#E2E7F0" fill-opacity="0.3" stroke="#DDDDDD" stroke-width="1.5"/>
<path d="M961.097 114.235H932.591V142.75H961.097V114.235Z" stroke="#DDDDDD" stroke-width="1.5"/>
<path d="M989.604 114.235H961.097V142.75H989.604V114.235Z" stroke="#DDDDDD" stroke-width="1.5"/>
<path d="M1018.11 114.235H989.604V142.75H1018.11V114.235Z" stroke="#DDDDDD" stroke-width="1.5"/>
<path d="M1046.62 114.235H1018.11V142.75H1046.62V114.235Z" stroke="#DDDDDD" stroke-width="1.5"/>
<path d="M1075.12 114.235H1046.62V142.75H1075.12V114.235Z" stroke="#DDDDDD" stroke-width="1.5"/>
<path d="M20.3835 142.75H-8.12292V171.265H20.3835V142.75Z" stroke="#DDDDDD" stroke-width="1.5"/>
<path d="M48.89 142.75H20.3835V171.265H48.89V142.75Z" stroke="#DDDDDD" stroke-width="1.5"/>
<path d="M77.3965 142.75H48.89V171.265H77.3965V142.75Z" stroke="#DDDDDD" stroke-width="1.5"/>
<path d="M105.903 142.75H77.3965V171.265H105.903V142.75Z" stroke="#DDDDDD" stroke-width="1.5"/>
<path d="M134.409 142.75H105.903V171.265H134.409V142.75Z" stroke="#DDDDDD" stroke-width="1.5"/>
<path d="M162.916 142.75H134.409V171.265H162.916V142.75Z" stroke="#DDDDDD" stroke-width="1.5"/>
<path d="M191.422 142.75H162.916V171.265H191.422V142.75Z" stroke="#DDDDDD" stroke-width="1.5"/>
<path d="M219.929 142.75H191.422V171.265H219.929V142.75Z" stroke="#DDDDDD" stroke-width="1.5"/>
<path d="M875.578 142.75H847.071V171.265H875.578V142.75Z" stroke="#DDDDDD" stroke-width="1.5"/>
<path d="M904.084 142.75H875.578V171.265H904.084V142.75Z" stroke="#DDDDDD" stroke-width="1.5"/>
<path d="M932.591 142.75H904.084V171.265H932.591V142.75Z" stroke="#DDDDDD" stroke-width="1.5"/>
<path d="M961.097 142.75H932.591V171.265H961.097V142.75Z" stroke="#DDDDDD" stroke-width="1.5"/>
<path d="M989.604 142.75H961.097V171.265H989.604V142.75Z" fill="#E2E7F0" fill-opacity="0.3" stroke="#DDDDDD" stroke-width="1.5"/>
<path d="M1018.11 142.75H989.604V171.265H1018.11V142.75Z" stroke="#DDDDDD" stroke-width="1.5"/>
<path d="M1046.62 142.75H1018.11V171.265H1046.62V142.75Z" stroke="#DDDDDD" stroke-width="1.5"/>
<path d="M1075.12 142.75H1046.62V171.265H1075.12V142.75Z" stroke="#DDDDDD" stroke-width="1.5"/>
<path d="M20.3835 171.265H-8.12292V199.781H20.3835V171.265Z" fill="#E2E7F0" fill-opacity="0.3" stroke="#DDDDDD" stroke-width="1.5"/>
<path d="M48.89 171.265H20.3835V199.781H48.89V171.265Z" stroke="#DDDDDD" stroke-width="1.5"/>
<path d="M77.3965 171.265H48.89V199.781H77.3965V171.265Z" stroke="#DDDDDD" stroke-width="1.5"/>
<path d="M191.422 171.265H162.916V199.781H191.422V171.265Z" fill="#E2E7F0" fill-opacity="0.3" stroke="#DDDDDD" stroke-width="1.5"/>
<path d="M219.929 171.265H191.422V199.781H219.929V171.265Z" stroke="#DDDDDD" stroke-width="1.5"/>
<path d="M276.942 171.265H248.435V199.781H276.942V171.265Z" stroke="#DDDDDD" stroke-width="1.5"/>
<path d="M305.448 171.265H276.942V199.781H305.448V171.265Z" stroke="#DDDDDD" stroke-width="1.5"/>
<path d="M847.071 171.265H818.565V199.781H847.071V171.265Z" stroke="#DDDDDD" stroke-width="1.5"/>
<path d="M875.578 171.265H847.071V199.781H875.578V171.265Z" fill="#E2E7F0" fill-opacity="0.3" stroke="#DDDDDD" stroke-width="1.5"/>
<path d="M904.084 171.265H875.578V199.781H904.084V171.265Z" stroke="#DDDDDD" stroke-width="1.5"/>
<path d="M932.591 171.265H904.084V199.781H932.591V171.265Z" stroke="#DDDDDD" stroke-width="1.5"/>
<path d="M961.097 171.265H932.591V199.781H961.097V171.265Z" stroke="#DDDDDD" stroke-width="1.5"/>
<path d="M1075.12 171.265H1046.62V199.781H1075.12V171.265Z" stroke="#DDDDDD" stroke-width="1.5"/>
<path d="M20.3835 199.781H-8.12292V228.296H20.3835V199.781Z" stroke="#DDDDDD" stroke-width="1.5"/>
<path d="M48.89 199.781H20.3835V228.296H48.89V199.781Z" stroke="#DDDDDD" stroke-width="1.5"/>
<path d="M77.3965 199.781H48.89V228.296H77.3965V199.781Z" stroke="#DDDDDD" stroke-width="1.5"/>
<path d="M105.903 199.781H77.3965V228.296H105.903V199.781Z" stroke="#DDDDDD" stroke-width="1.5"/>
<path d="M134.409 199.781H105.903V228.296H134.409V199.781Z" stroke="#DDDDDD" stroke-width="1.5"/>
<path d="M162.916 199.781H134.409V228.296H162.916V199.781Z" fill="#E2E7F0" fill-opacity="0.3" stroke="#DDDDDD" stroke-width="1.5"/>
<path d="M305.448 199.781H276.942V228.296H305.448V199.781Z" stroke="#DDDDDD" stroke-width="1.5"/>
<path d="M333.955 199.781H305.448V228.296H333.955V199.781Z" stroke="#DDDDDD" stroke-width="1.5"/>
<path d="M619.019 199.781H590.513V228.296H619.019V199.781Z" stroke="#DDDDDD" stroke-width="1.5"/>
<path d="M647.526 199.781H619.019V228.296H647.526V199.781Z" stroke="#DDDDDD" stroke-width="1.5"/>
<path d="M676.032 199.781H647.526V228.296H676.032V199.781Z" stroke="#DDDDDD" stroke-width="1.5"/>
<path d="M704.539 199.781H676.032V228.296H704.539V199.781Z" stroke="#DDDDDD" stroke-width="1.5"/>
<path d="M733.045 199.781H704.539V228.296H733.045V199.781Z" stroke="#DDDDDD" stroke-width="1.5"/>
<path d="M761.552 199.781H733.045V228.296H761.552V199.781Z" stroke="#DDDDDD" stroke-width="1.5"/>
<path d="M790.058 199.781H761.552V228.296H790.058V199.781Z" stroke="#DDDDDD" stroke-width="1.5"/>
<path d="M818.565 199.781H790.058V228.296H818.565V199.781Z" stroke="#DDDDDD" stroke-width="1.5"/>
<path d="M989.604 199.781H961.097V228.296H989.604V199.781Z" stroke="#DDDDDD" stroke-width="1.5"/>
<path d="M1018.11 199.781H989.604V228.296H1018.11V199.781Z" stroke="#DDDDDD" stroke-width="1.5"/>
<path d="M1046.62 199.781H1018.11V228.296H1046.62V199.781Z" stroke="#DDDDDD" stroke-width="1.5"/>
<path d="M1075.12 199.781H1046.62V228.296H1075.12V199.781Z" stroke="#DDDDDD" stroke-width="1.5"/>
<path d="M20.3835 228.296H-8.12292V256.811H20.3835V228.296Z" stroke="#DDDDDD" stroke-width="1.5"/>
<path d="M48.89 228.296H20.3835V256.811H48.89V228.296Z" stroke="#DDDDDD" stroke-width="1.5"/>
<path d="M77.3965 228.296H48.89V256.811H77.3965V228.296Z" stroke="#DDDDDD" stroke-width="1.5"/>
<path d="M105.903 228.296H77.3965V256.811H105.903V228.296Z" fill="#E2E7F0" fill-opacity="0.3" stroke="#DDDDDD" stroke-width="1.5"/>
<path d="M134.409 228.296H105.903V256.811H134.409V228.296Z" stroke="#DDDDDD" stroke-width="1.5"/>
<path d="M162.916 228.296H134.409V256.811H162.916V228.296Z" stroke="#DDDDDD" stroke-width="1.5"/>
<path d="M191.422 228.296H162.916V256.811H191.422V228.296Z" stroke="#DDDDDD" stroke-width="1.5"/>
<path d="M219.929 228.296H191.422V256.811H219.929V228.296Z" stroke="#DDDDDD" stroke-width="1.5"/>
<path d="M305.448 228.296H276.942V256.811H305.448V228.296Z" stroke="#DDDDDD" stroke-width="1.5"/>
<path d="M818.565 228.296H790.058V256.811H818.565V228.296Z" stroke="#DDDDDD" stroke-width="1.5"/>
<path d="M847.071 228.296H818.565V256.811H847.071V228.296Z" stroke="#DDDDDD" stroke-width="1.5"/>
<path d="M989.604 228.296H961.097V256.811H989.604V228.296Z" stroke="#DDDDDD" stroke-width="1.5"/>
<path d="M1018.11 228.296H989.604V256.811H1018.11V228.296Z" stroke="#DDDDDD" stroke-width="1.5"/>
<path d="M1046.62 228.296H1018.11V256.811H1046.62V228.296Z" fill="#E2E7F0" fill-opacity="0.3" stroke="#DDDDDD" stroke-width="1.5"/>
<path d="M1075.12 228.296H1046.62V256.811H1075.12V228.296Z" stroke="#DDDDDD" stroke-width="1.5"/>
<path d="M20.3835 256.811H-8.12292V285.327H20.3835V256.811Z" stroke="#DDDDDD" stroke-width="1.5"/>
<path d="M105.903 256.811H77.3965V285.327H105.903V256.811Z" stroke="#DDDDDD" stroke-width="1.5"/>
<path d="M191.422 256.811H162.916V285.327H191.422V256.811Z" stroke="#DDDDDD" stroke-width="1.5"/>
<path d="M219.929 256.811H191.422V285.327H219.929V256.811Z" fill="#E2E7F0" fill-opacity="0.3" stroke="#DDDDDD" stroke-width="1.5"/>
<path d="M333.955 256.811H305.448V285.327H333.955V256.811Z" stroke="#DDDDDD" stroke-width="1.5"/>
<path d="M362.461 256.811H333.955V285.327H362.461V256.811Z" stroke="#DDDDDD" stroke-width="1.5"/>
<path d="M390.968 256.811H362.461V285.327H390.968V256.811Z" stroke="#DDDDDD" stroke-width="1.5"/>
<path d="M419.474 256.811H390.968V285.327H419.474V256.811Z" fill="#E2E7F0" fill-opacity="0.3" stroke="#DDDDDD" stroke-width="1.5"/>
<path d="M447.981 256.811H419.474V285.327H447.981V256.811Z" stroke="#DDDDDD" stroke-width="1.5"/>
<path d="M476.487 256.811H447.981V285.327H476.487V256.811Z" stroke="#DDDDDD" stroke-width="1.5"/>
<path d="M790.058 256.811H761.552V285.327H790.058V256.811Z" stroke="#DDDDDD" stroke-width="1.5"/>
<path opacity="0.99" d="M818.565 256.811H790.058V285.327H818.565V256.811Z" stroke="#DDDDDD" stroke-width="1.5"/>
<path d="M904.084 256.811H875.578V285.327H904.084V256.811Z" stroke="#DDDDDD" stroke-width="1.5"/>
<path d="M932.591 256.811H904.084V285.327H932.591V256.811Z" stroke="#DDDDDD" stroke-width="1.5"/>
<path d="M961.097 256.811H932.591V285.327H961.097V256.811Z" stroke="#DDDDDD" stroke-width="1.5"/>
<path d="M1075.12 256.811H1046.62V285.327H1075.12V256.811Z" stroke="#DDDDDD" stroke-width="1.5"/>
<path d="M20.3835 285.327H-8.12292V313.842H20.3835V285.327Z" stroke="#DDDDDD" stroke-width="1.5"/>
<path d="M48.89 285.327H20.3835V313.842H48.89V285.327Z" stroke="#DDDDDD" stroke-width="1.5"/>
<path d="M77.3965 285.327H48.89V313.842H77.3965V285.327Z" stroke="#DDDDDD" stroke-width="1.5"/>
<path d="M105.903 285.327H77.3965V313.842H105.903V285.327Z" stroke="#DDDDDD" stroke-width="1.5"/>
<path d="M134.409 285.327H105.903V313.842H134.409V285.327Z" stroke="#DDDDDD" stroke-width="1.5"/>
<path d="M419.474 285.327H390.968V313.842H419.474V285.327Z" stroke="#DDDDDD" stroke-width="1.5"/>
<path d="M447.981 285.327H419.474V313.842H447.981V285.327Z" stroke="#DDDDDD" stroke-width="1.5"/>
<path d="M476.487 285.327H447.981V313.842H476.487V285.327Z" stroke="#DDDDDD" stroke-width="1.5"/>
<path d="M676.032 285.327H647.526V313.842H676.032V285.327Z" stroke="#DDDDDD" stroke-width="1.5"/>
<path d="M704.539 285.327H676.032V313.842H704.539V285.327Z" stroke="#DDDDDD" stroke-width="1.5"/>
<path d="M733.045 285.327H704.539V313.842H733.045V285.327Z" stroke="#DDDDDD" stroke-width="1.5"/>
<path d="M761.552 285.327H733.045V313.842H761.552V285.327Z" stroke="#DDDDDD" stroke-width="1.5"/>
<path d="M790.058 285.327H761.552V313.842H790.058V285.327Z" fill="#E2E7F0" fill-opacity="0.3" stroke="#DDDDDD" stroke-width="1.5"/>
<path d="M818.565 285.327H790.058V313.842H818.565V285.327Z" stroke="#DDDDDD" stroke-width="1.5"/>
<path d="M847.071 285.327H818.565V313.842H847.071V285.327Z" stroke="#DDDDDD" stroke-width="1.5"/>
<path d="M904.084 285.327H875.578V313.842H904.084V285.327Z" stroke="#DDDDDD" stroke-width="1.5"/>
<path d="M932.591 285.327H904.084V313.842H932.591V285.327Z" stroke="#DDDDDD" stroke-width="1.5"/>
<path d="M961.097 285.327H932.591V313.842H961.097V285.327Z" stroke="#DDDDDD" stroke-width="1.5"/>
<path d="M989.604 285.327H961.097V313.842H989.604V285.327Z" fill="#E2E7F0" fill-opacity="0.3" stroke="#DDDDDD" stroke-width="1.5"/>
<path d="M1018.11 285.327H989.604V313.842H1018.11V285.327Z" stroke="#DDDDDD" stroke-width="1.5"/>
<path d="M1046.62 285.327H1018.11V313.842H1046.62V285.327Z" stroke="#DDDDDD" stroke-width="1.5"/>
<path d="M1075.12 285.327H1046.62V313.842H1075.12V285.327Z" stroke="#DDDDDD" stroke-width="1.5"/>
<path d="M20.3835 313.842H-8.12292V342.357H20.3835V313.842Z" stroke="#DDDDDD" stroke-width="1.5"/>
<path d="M48.89 313.842H20.3835V342.357H48.89V313.842Z" stroke="#DDDDDD" stroke-width="1.5"/>
<path d="M77.3965 313.842H48.89V342.357H77.3965V313.842Z" fill="#E2E7F0" fill-opacity="0.3" stroke="#DDDDDD" stroke-width="1.5"/>
<path d="M105.903 313.842H77.3965V342.357H105.903V313.842Z" stroke="#DDDDDD" stroke-width="1.5"/>
<path d="M134.409 313.842H105.903V342.357H134.409V313.842Z" stroke="#DDDDDD" stroke-width="1.5"/>
<path d="M162.916 313.842H134.409V342.357H162.916V313.842Z" stroke="#DDDDDD" stroke-width="1.5"/>
<path d="M191.422 313.842H162.916V342.357H191.422V313.842Z" stroke="#DDDDDD" stroke-width="1.5"/>
<path d="M219.929 313.842H191.422V342.357H219.929V313.842Z" stroke="#DDDDDD" stroke-width="1.5"/>
<path d="M248.435 313.842H219.929V342.357H248.435V313.842Z" stroke="#DDDDDD" stroke-width="1.5"/>
<path d="M276.942 313.842H248.435V342.357H276.942V313.842Z" stroke="#DDDDDD" stroke-width="1.5"/>
<path d="M305.448 313.842H276.942V342.357H305.448V313.842Z" stroke="#DDDDDD" stroke-width="1.5"/>
<path d="M333.955 313.842H305.448V342.357H333.955V313.842Z" stroke="#DDDDDD" stroke-width="1.5"/>
<path d="M362.461 313.842H333.955V342.357H362.461V313.842Z" fill="#E2E7F0" fill-opacity="0.3" stroke="#DDDDDD" stroke-width="1.5"/>
<path d="M619.019 313.842H590.513V342.357H619.019V313.842Z" stroke="#DDDDDD" stroke-width="1.5"/>
<path d="M647.526 313.842H619.019V342.357H647.526V313.842Z" stroke="#DDDDDD" stroke-width="1.5"/>
<path d="M676.032 313.842H647.526V342.357H676.032V313.842Z" stroke="#DDDDDD" stroke-width="1.5"/>
<path d="M704.539 313.842H676.032V342.357H704.539V313.842Z" stroke="#DDDDDD" stroke-width="1.5"/>
<path d="M733.045 313.842H704.539V342.357H733.045V313.842Z" fill="#E2E7F0" fill-opacity="0.3" stroke="#DDDDDD" stroke-width="1.5"/>
<path d="M761.552 313.842H733.045V342.357H761.552V313.842Z" stroke="#DDDDDD" stroke-width="1.5"/>
<path d="M790.058 313.842H761.552V342.357H790.058V313.842Z" stroke="#DDDDDD" stroke-width="1.5"/>
<path d="M818.565 313.842H790.058V342.357H818.565V313.842Z" stroke="#DDDDDD" stroke-width="1.5"/>
<path d="M847.071 313.842H818.565V342.357H847.071V313.842Z" stroke="#DDDDDD" stroke-width="1.5"/>
<path d="M875.578 313.842H847.071V342.357H875.578V313.842Z" stroke="#DDDDDD" stroke-width="1.5"/>
<path d="M904.084 313.842H875.578V342.357H904.084V313.842Z" stroke="#DDDDDD" stroke-width="1.5"/>
<path d="M932.591 313.842H904.084V342.357H932.591V313.842Z" stroke="#DDDDDD" stroke-width="1.5"/>
<path d="M961.097 313.842H932.591V342.357H961.097V313.842Z" stroke="#DDDDDD" stroke-width="1.5"/>
<path d="M989.604 313.842H961.097V342.357H989.604V313.842Z" stroke="#DDDDDD" stroke-width="1.5"/>
<path d="M1018.11 313.842H989.604V342.357H1018.11V313.842Z" stroke="#DDDDDD" stroke-width="1.5"/>
<path d="M1046.62 313.842H1018.11V342.357H1046.62V313.842Z" stroke="#DDDDDD" stroke-width="1.5"/>
<path d="M1075.12 313.842H1046.62V342.357H1075.12V313.842Z" stroke="#DDDDDD" stroke-width="1.5"/>
<path d="M20.3835 342.357H-8.12292V370.873H20.3835V342.357Z" stroke="#DDDDDD" stroke-width="1.5"/>
<path d="M48.89 342.357H20.3835V370.873H48.89V342.357Z" stroke="#DDDDDD" stroke-width="1.5"/>
<path d="M77.3965 342.357H48.89V370.873H77.3965V342.357Z" stroke="#DDDDDD" stroke-width="1.5"/>
<path d="M105.903 342.357H77.3965V370.873H105.903V342.357Z" stroke="#DDDDDD" stroke-width="1.5"/>
<path d="M134.409 342.357H105.903V370.873H134.409V342.357Z" stroke="#DDDDDD" stroke-width="1.5"/>
<path d="M162.916 342.357H134.409V370.873H162.916V342.357Z" fill="#E2E7F0" fill-opacity="0.3" stroke="#DDDDDD" stroke-width="1.5"/>
<path d="M305.448 342.357H276.942V370.873H305.448V342.357Z" stroke="#DDDDDD" stroke-width="1.5"/>
<path d="M333.955 342.357H305.448V370.873H333.955V342.357Z" stroke="#DDDDDD" stroke-width="1.5"/>
<path d="M619.019 342.357H590.513V370.873H619.019V342.357Z" stroke="#DDDDDD" stroke-width="1.5"/>
<path d="M647.526 342.357H619.019V370.873H647.526V342.357Z" stroke="#DDDDDD" stroke-width="1.5"/>
<path d="M676.032 342.357H647.526V370.873H676.032V342.357Z" stroke="#DDDDDD" stroke-width="1.5"/>
<path d="M704.539 342.357H676.032V370.873H704.539V342.357Z" stroke="#DDDDDD" stroke-width="1.5"/>
<path d="M733.045 342.357H704.539V370.873H733.045V342.357Z" stroke="#DDDDDD" stroke-width="1.5"/>
<path d="M761.552 342.357H733.045V370.873H761.552V342.357Z" stroke="#DDDDDD" stroke-width="1.5"/>
<path d="M790.058 342.357H761.552V370.873H790.058V342.357Z" stroke="#DDDDDD" stroke-width="1.5"/>
<path d="M818.565 342.357H790.058V370.873H818.565V342.357Z" stroke="#DDDDDD" stroke-width="1.5"/>
<path d="M989.604 342.357H961.097V370.873H989.604V342.357Z" stroke="#DDDDDD" stroke-width="1.5"/>
<path d="M1018.11 342.357H989.604V370.873H1018.11V342.357Z" stroke="#DDDDDD" stroke-width="1.5"/>
<path d="M1046.62 342.357H1018.11V370.873H1046.62V342.357Z" stroke="#DDDDDD" stroke-width="1.5"/>
<path d="M1075.12 342.357H1046.62V370.873H1075.12V342.357Z" stroke="#DDDDDD" stroke-width="1.5"/>
<path d="M20.3835 370.873H-8.12292V399.388H20.3835V370.873Z" stroke="#DDDDDD" stroke-width="1.5"/>
<path d="M48.89 370.873H20.3835V399.388H48.89V370.873Z" stroke="#DDDDDD" stroke-width="1.5"/>
<path d="M77.3965 370.873H48.89V399.388H77.3965V370.873Z" stroke="#DDDDDD" stroke-width="1.5"/>
<path d="M105.903 370.873H77.3965V399.388H105.903V370.873Z" stroke="#DDDDDD" stroke-width="1.5"/>
<path d="M134.409 370.873H105.903V399.388H134.409V370.873Z" stroke="#DDDDDD" stroke-width="1.5"/>
<path d="M162.916 370.873H134.409V399.388H162.916V370.873Z" stroke="#DDDDDD" stroke-width="1.5"/>
<path d="M191.422 370.873H162.916V399.388H191.422V370.873Z" stroke="#DDDDDD" stroke-width="1.5"/>
<path d="M219.929 370.873H191.422V399.388H219.929V370.873Z" stroke="#DDDDDD" stroke-width="1.5"/>
<path d="M276.942 370.873H248.435V399.388H276.942V370.873Z" stroke="#DDDDDD" stroke-width="1.5"/>
<path d="M305.448 370.873H276.942V399.388H305.448V370.873Z" stroke="#DDDDDD" stroke-width="1.5"/>
<path d="M333.955 370.873H305.448V399.388H333.955V370.873Z" stroke="#DDDDDD" stroke-width="1.5"/>
<path d="M362.461 370.873H333.955V399.388H362.461V370.873Z" stroke="#DDDDDD" stroke-width="1.5"/>
<path d="M562.006 370.873H533.5V399.388H562.006V370.873Z" stroke="#DDDDDD" stroke-width="1.5"/>
<path d="M590.513 370.873H562.006V399.388H590.513V370.873Z" stroke="#DDDDDD" stroke-width="1.5"/>
<path d="M619.019 370.873H590.513V399.388H619.019V370.873Z" stroke="#DDDDDD" stroke-width="1.5"/>
<path d="M647.526 370.873H619.019V399.388H647.526V370.873Z" stroke="#DDDDDD" stroke-width="1.5"/>
<path d="M676.032 370.873H647.526V399.388H676.032V370.873Z" stroke="#DDDDDD" stroke-width="1.5"/>
<path d="M704.539 370.873H676.032V399.388H704.539V370.873Z" stroke="#DDDDDD" stroke-width="1.5"/>
<path d="M733.045 370.873H704.539V399.388H733.045V370.873Z" stroke="#DDDDDD" stroke-width="1.5"/>
<path d="M790.058 370.873H761.552V399.388H790.058V370.873Z" stroke="#DDDDDD" stroke-width="1.5"/>
<path d="M847.071 370.873H818.565V399.388H847.071V370.873Z" fill="#E2E7F0" fill-opacity="0.3" stroke="#DDDDDD" stroke-width="1.5"/>
<path d="M875.578 370.873H847.071V399.388H875.578V370.873Z" stroke="#DDDDDD" stroke-width="1.5"/>
<path d="M1046.62 370.873H1018.11V399.388H1046.62V370.873Z" stroke="#DDDDDD" stroke-width="1.5"/>
<path d="M1075.12 370.873H1046.62V399.388H1075.12V370.873Z" fill="#E2E7F0" fill-opacity="0.3" stroke="#DDDDDD" stroke-width="1.5"/>
<path d="M20.3835 427.903V399.388H-8.12292V427.903" stroke="#DDDDDD" stroke-width="1.5"/>
<path d="M48.89 427.903V399.388H20.3835V427.903" stroke="#DDDDDD" stroke-width="1.5"/>
<path d="M77.3965 427.903V399.388H48.89V427.903" stroke="#DDDDDD" stroke-width="1.5"/>
<path d="M105.903 427.903V399.388H77.3965V427.903" stroke="#DDDDDD" stroke-width="1.5"/>
<path d="M134.409 427.903V399.388H105.903V427.903" stroke="#DDDDDD" stroke-width="1.5"/>
<path d="M162.916 427.903V399.388H134.409V427.903" stroke="#DDDDDD" stroke-width="1.5"/>
<path d="M333.955 427.903V399.388H305.448V427.903" stroke="#DDDDDD" stroke-width="1.5"/>
<path d="M362.461 427.903V399.388H333.955V427.903" stroke="#DDDDDD" stroke-width="1.5"/>
<path d="M390.968 427.903V399.388H362.461V427.903" stroke="#DDDDDD" stroke-width="1.5"/>
<path d="M419.474 427.903V399.388H390.968V427.903" stroke="#DDDDDD" stroke-width="1.5"/>
<path d="M447.981 427.903V399.388H419.474V427.903" stroke="#DDDDDD" stroke-width="1.5"/>
<path d="M476.487 427.903V399.388H447.981V427.903" stroke="#DDDDDD" stroke-width="1.5"/>
<path d="M904.084 427.903V399.388H875.578V427.903" stroke="#DDDDDD" stroke-width="1.5"/>
<path d="M932.591 427.903V399.388H904.084V427.903" stroke="#DDDDDD" stroke-width="1.5"/>
<path d="M961.097 427.903V399.388H932.591V427.903" stroke="#DDDDDD" stroke-width="1.5"/>
<path d="M989.604 427.903V399.388H961.097V427.903" stroke="#DDDDDD" stroke-width="1.5"/>
<path d="M1018.11 427.903V399.388H989.604V427.903" stroke="#DDDDDD" stroke-width="1.5"/>
<path d="M1046.62 427.903V399.388H1018.11V427.903" stroke="#DDDDDD" stroke-width="1.5"/>
<path d="M1075.12 427.903V399.388H1046.62V427.903" stroke="#DDDDDD" stroke-width="1.5"/>
<path d="M20.4713 116.428L20.4713 169.072" stroke="url(#paint0_linear_75_3)" stroke-width="1.5" stroke-linecap="round" stroke-linejoin="round"/>
<g filter="url(#filter0_d_75_3)">
<path d="M932.591 177.407V124.763" stroke="url(#paint1_linear_75_3)" stroke-width="1.5" stroke-linecap="round" stroke-linejoin="round"/>
<path d="M162.916 200V147.356" stroke="url(#paint2_linear_75_3)" stroke-width="1.5" stroke-linecap="round" stroke-linejoin="round"/>
<path d="M219.994 58.3961L219.994 111.04" stroke="url(#paint3_linear_75_3)" stroke-width="1.5" stroke-linecap="round" stroke-linejoin="round"/>
<path d="M790.091 58.3961L790.091 111.04" stroke="url(#paint4_linear_75_3)" stroke-width="1.5" stroke-linecap="round" stroke-linejoin="round"/>
</g>
<rect x="263.989" width="539.022" height="399.388" fill="url(#paint5_radial_75_3)"/>
</g>
<g clip-path="url(#clip2_75_3)">
<path d="M181.738 322.023C181.652 322.031 181.378 322.059 181.131 322.078C175.441 322.591 170.111 325.661 166.736 330.38C164.856 333.004 163.654 335.98 163.2 339.133C163.039 340.233 163.02 340.558 163.02 342.05C163.02 343.542 163.039 343.867 163.2 344.967C164.288 352.49 169.642 358.811 176.902 361.152C178.202 361.571 179.573 361.857 181.131 362.03C181.738 362.096 184.362 362.096 184.969 362.03C187.659 361.732 189.938 361.066 192.186 359.919C192.531 359.743 192.597 359.696 192.55 359.656C192.519 359.633 191.05 357.663 189.288 355.282L186.085 350.955L182.071 345.014C179.862 341.748 178.045 339.078 178.03 339.078C178.014 339.074 177.998 341.713 177.991 344.936C177.979 350.579 177.975 350.806 177.904 350.939C177.803 351.131 177.724 351.21 177.56 351.296C177.434 351.358 177.325 351.37 176.733 351.37H176.056L175.876 351.257C175.758 351.182 175.672 351.084 175.613 350.971L175.531 350.794L175.539 342.943L175.551 335.087L175.672 334.935C175.735 334.852 175.868 334.747 175.962 334.696C176.123 334.617 176.185 334.61 176.863 334.61C177.662 334.61 177.795 334.641 178.002 334.868C178.061 334.931 180.234 338.204 182.835 342.148C185.435 346.091 188.991 351.476 190.737 354.119L193.909 358.924L194.07 358.818C195.491 357.894 196.995 356.578 198.185 355.208C200.719 352.298 202.352 348.75 202.9 344.967C203.061 343.867 203.08 343.542 203.08 342.05C203.08 340.558 203.061 340.233 202.9 339.133C201.812 331.61 196.458 325.289 189.198 322.948C187.918 322.533 186.555 322.247 185.028 322.074C184.652 322.035 182.063 321.992 181.738 322.023ZM189.938 334.14C190.126 334.234 190.279 334.414 190.334 334.602C190.365 334.704 190.373 336.881 190.365 341.788L190.353 348.829L189.112 346.925L187.867 345.022V339.904C187.867 336.595 187.882 334.735 187.906 334.645C187.969 334.426 188.106 334.253 188.294 334.151C188.454 334.069 188.513 334.061 189.128 334.061C189.707 334.061 189.809 334.069 189.938 334.14Z" fill="#20294F"/>
<path d="M193.713 359.01C193.576 359.096 193.533 359.155 193.655 359.089C193.741 359.038 193.882 358.932 193.858 358.928C193.846 358.928 193.78 358.967 193.713 359.01Z" fill="#20294F"/>
<path d="M193.443 359.186C193.373 359.241 193.373 359.245 193.459 359.202C193.506 359.179 193.545 359.151 193.545 359.143C193.545 359.112 193.525 359.12 193.443 359.186Z" fill="#20294F"/>
<path d="M193.247 359.304C193.177 359.359 193.177 359.363 193.263 359.32C193.31 359.296 193.349 359.269 193.349 359.261C193.349 359.23 193.33 359.237 193.247 359.304Z" fill="#20294F"/>
<path d="M193.052 359.421C192.981 359.476 192.981 359.48 193.067 359.437C193.114 359.414 193.153 359.386 193.153 359.378C193.153 359.347 193.134 359.355 193.052 359.421Z" fill="#20294F"/>
<path d="M192.754 359.578C192.605 359.656 192.613 359.688 192.762 359.613C192.828 359.578 192.879 359.543 192.879 359.535C192.879 359.508 192.875 359.512 192.754 359.578Z" fill="#20294F"/>
</g>
<path d="M88.5123 347.348L79.947 332.539C79.5543 331.859 78.5864 331.302 77.7963 331.302H72.4488C71.2059 331.302 70.6963 330.427 71.3163 329.358L74.2488 324.301C74.4815 323.9 74.481 323.406 74.2475 323.005C74.0139 322.604 73.5828 322.357 73.1163 322.357H65.6565C64.8663 322.357 63.8963 322.913 63.5008 323.592L49.0052 348.488C48.6098 349.167 48.6095 350.279 49.0047 350.958L52.7345 357.37C53.3559 358.439 54.3751 358.44 54.9992 357.373L57.9137 352.391C58.5378 351.324 59.557 351.326 60.1784 352.394L62.8206 356.936C63.2157 357.616 64.1854 358.171 64.9756 358.171H82.2135C83.0038 358.171 83.9735 357.616 84.3686 356.936L88.508 349.82C88.9031 349.141 88.905 348.028 88.5123 347.348ZM76.9449 346.635C77.5624 347.706 77.0508 348.582 75.8079 348.582H62.3996C61.1567 348.582 60.6482 347.707 61.2696 346.639L67.9791 335.104C68.6005 334.036 69.6174 334.036 70.2388 335.104L76.9449 346.635Z" fill="#20294F"/>
<path d="M343.547 158.432V180.523H329.433V141.25H342.831V148.716H343.24C344.092 146.228 345.592 144.276 347.74 142.861C349.905 141.446 352.428 140.739 355.308 140.739C358.087 140.739 360.499 141.378 362.544 142.657C364.606 143.918 366.2 145.657 367.325 147.872C368.467 150.088 369.03 152.62 369.013 155.466V180.523H354.899V158.432C354.916 156.489 354.422 154.963 353.416 153.855C352.428 152.747 351.047 152.193 349.274 152.193C348.115 152.193 347.101 152.449 346.231 152.961C345.379 153.455 344.723 154.171 344.263 155.108C343.803 156.029 343.564 157.137 343.547 158.432ZM394.798 181.239C390.605 181.239 386.991 180.438 383.957 178.836C380.94 177.216 378.614 174.898 376.977 171.881C375.358 168.847 374.548 165.216 374.548 160.989C374.548 156.932 375.366 153.387 377.003 150.353C378.639 147.318 380.949 144.958 383.932 143.27C386.915 141.583 390.435 140.739 394.491 140.739C397.457 140.739 400.142 141.199 402.545 142.12C404.949 143.04 407.003 144.378 408.707 146.134C410.412 147.872 411.724 149.986 412.645 152.475C413.565 154.963 414.026 157.767 414.026 160.887V164.159H378.946V156.387H401.037C401.02 155.262 400.73 154.273 400.168 153.421C399.622 152.551 398.881 151.878 397.943 151.401C397.023 150.907 395.974 150.659 394.798 150.659C393.656 150.659 392.608 150.907 391.653 151.401C390.699 151.878 389.932 152.543 389.352 153.395C388.79 154.247 388.491 155.245 388.457 156.387V164.773C388.457 166.034 388.722 167.159 389.25 168.148C389.778 169.137 390.537 169.912 391.526 170.475C392.514 171.037 393.707 171.318 395.105 171.318C396.077 171.318 396.963 171.182 397.764 170.909C398.582 170.637 399.281 170.245 399.861 169.733C400.44 169.205 400.866 168.574 401.139 167.841H414.026C413.582 170.568 412.534 172.938 410.881 174.949C409.227 176.943 407.037 178.495 404.31 179.603C401.599 180.693 398.429 181.239 394.798 181.239ZM431.533 141.25L437.261 153.421L443.295 141.25H457.306L446.772 160.887L457.817 180.523H443.908L437.261 168.046L430.817 180.523H416.704L427.852 160.887L417.42 141.25H431.533ZM485.744 141.25V151.478H459.869V141.25H485.744ZM464.881 131.841H478.994V167.892C478.994 168.438 479.088 168.898 479.276 169.273C479.463 169.631 479.753 169.904 480.145 170.091C480.537 170.262 481.04 170.347 481.653 170.347C482.079 170.347 482.574 170.296 483.136 170.193C483.716 170.091 484.142 170.006 484.415 169.938L486.46 179.858C485.829 180.046 484.926 180.276 483.75 180.549C482.591 180.821 481.21 181 479.608 181.086C476.369 181.256 473.651 180.924 471.452 180.088C469.253 179.236 467.599 177.898 466.491 176.074C465.383 174.25 464.847 171.966 464.881 169.222V131.841ZM516.292 154.341V164.978H491.746V154.341H516.292ZM535.634 181.137C533.128 181.137 530.913 180.728 528.986 179.909C527.077 179.074 525.577 177.813 524.486 176.125C523.396 174.438 522.85 172.29 522.85 169.682C522.85 167.534 523.217 165.702 523.95 164.185C524.682 162.651 525.705 161.398 527.018 160.426C528.33 159.455 529.856 158.713 531.594 158.202C533.35 157.691 535.242 157.358 537.271 157.205C539.469 157.034 541.234 156.83 542.563 156.591C543.91 156.336 544.881 155.986 545.478 155.543C546.075 155.083 546.373 154.478 546.373 153.728V153.625C546.373 152.603 545.981 151.818 545.197 151.273C544.413 150.728 543.407 150.455 542.18 150.455C540.833 150.455 539.734 150.753 538.881 151.35C538.046 151.929 537.543 152.824 537.373 154.034H524.384C524.555 151.648 525.313 149.449 526.66 147.438C528.023 145.409 530.009 143.79 532.617 142.58C535.225 141.353 538.481 140.739 542.384 140.739C545.197 140.739 547.719 141.071 549.952 141.736C552.185 142.384 554.086 143.296 555.654 144.472C557.222 145.631 558.415 146.995 559.234 148.563C560.069 150.114 560.486 151.801 560.486 153.625V180.523H547.293V175H546.986C546.202 176.466 545.248 177.651 544.123 178.554C543.015 179.458 541.745 180.114 540.313 180.523C538.898 180.932 537.339 181.137 535.634 181.137ZM540.236 172.239C541.31 172.239 542.316 172.017 543.253 171.574C544.208 171.131 544.984 170.492 545.58 169.657C546.177 168.821 546.475 167.807 546.475 166.614V163.341C546.1 163.495 545.7 163.639 545.273 163.776C544.864 163.912 544.421 164.04 543.944 164.159C543.484 164.279 542.989 164.389 542.461 164.492C541.95 164.594 541.413 164.688 540.85 164.773C539.759 164.943 538.864 165.225 538.165 165.617C537.484 165.992 536.972 166.461 536.631 167.023C536.307 167.568 536.146 168.182 536.146 168.864C536.146 169.955 536.529 170.79 537.296 171.37C538.063 171.949 539.043 172.239 540.236 172.239ZM579.401 141.25L585.128 153.421L591.162 141.25H605.173L594.639 160.887L605.685 180.523H591.776L585.128 168.046L578.685 180.523H564.571L575.719 160.887L565.287 141.25H579.401ZM610.191 180.523V141.25H624.305V180.523H610.191ZM617.248 137.159C615.339 137.159 613.702 136.529 612.339 135.267C610.975 134.006 610.293 132.489 610.293 130.716C610.293 128.943 610.975 127.426 612.339 126.165C613.702 124.904 615.339 124.273 617.248 124.273C619.174 124.273 620.81 124.904 622.157 126.165C623.521 127.426 624.202 128.943 624.202 130.716C624.202 132.489 623.521 134.006 622.157 135.267C620.81 136.529 619.174 137.159 617.248 137.159ZM650.416 181.239C646.155 181.239 642.507 180.395 639.473 178.708C636.439 177.003 634.112 174.634 632.493 171.6C630.874 168.549 630.064 165.012 630.064 160.989C630.064 156.966 630.874 153.438 632.493 150.404C634.112 147.353 636.439 144.983 639.473 143.296C642.507 141.591 646.155 140.739 650.416 140.739C654.678 140.739 658.325 141.591 661.359 143.296C664.393 144.983 666.72 147.353 668.339 150.404C669.959 153.438 670.768 156.966 670.768 160.989C670.768 165.012 669.959 168.549 668.339 171.6C666.72 174.634 664.393 177.003 661.359 178.708C658.325 180.395 654.678 181.239 650.416 181.239ZM650.518 170.807C651.712 170.807 652.743 170.407 653.612 169.605C654.481 168.804 655.155 167.662 655.632 166.179C656.109 164.696 656.348 162.932 656.348 160.887C656.348 158.824 656.109 157.06 655.632 155.594C655.155 154.111 654.481 152.969 653.612 152.168C652.743 151.367 651.712 150.966 650.518 150.966C649.257 150.966 648.175 151.367 647.271 152.168C646.368 152.969 645.678 154.111 645.2 155.594C644.723 157.06 644.484 158.824 644.484 160.887C644.484 162.932 644.723 164.696 645.2 166.179C645.678 167.662 646.368 168.804 647.271 169.605C648.175 170.407 649.257 170.807 650.518 170.807ZM676.496 180.523V141.25H689.893V148.716H690.303C691.121 146.262 692.518 144.318 694.496 142.887C696.473 141.455 698.825 140.739 701.553 140.739C704.314 140.739 706.692 141.472 708.686 142.938C710.68 144.387 711.882 146.313 712.291 148.716H712.7C713.365 146.313 714.78 144.387 716.945 142.938C719.109 141.472 721.649 140.739 724.564 140.739C728.331 140.739 731.382 141.949 733.717 144.37C736.07 146.79 737.246 150.012 737.246 154.034V180.523H723.132V157.614C723.132 155.892 722.697 154.546 721.828 153.574C720.959 152.586 719.791 152.091 718.325 152.091C716.876 152.091 715.726 152.586 714.874 153.574C714.038 154.546 713.621 155.892 713.621 157.614V180.523H700.121V157.614C700.121 155.892 699.686 154.546 698.817 153.574C697.947 152.586 696.78 152.091 695.314 152.091C694.342 152.091 693.507 152.313 692.808 152.756C692.109 153.199 691.564 153.838 691.172 154.674C690.797 155.492 690.609 156.472 690.609 157.614V180.523H676.496Z" fill="url(#paint6_radial_75_3)"/>
<path d="M327.188 222.196V219.545H341.114V222.196H335.719V237H332.583V222.196H327.188ZM346.748 229.33V237H343.662V219.545H346.679V226.134H346.833C347.14 225.395 347.614 224.812 348.256 224.386C348.904 223.955 349.728 223.739 350.728 223.739C351.637 223.739 352.429 223.929 353.106 224.31C353.782 224.69 354.304 225.247 354.674 225.98C355.049 226.713 355.236 227.608 355.236 228.665V237H352.151V229.142C352.151 228.261 351.924 227.577 351.469 227.088C351.02 226.594 350.39 226.347 349.577 226.347C349.032 226.347 348.543 226.466 348.111 226.705C347.685 226.937 347.35 227.276 347.106 227.719C346.867 228.162 346.748 228.699 346.748 229.33ZM364.177 237.256C362.864 237.256 361.731 236.983 360.776 236.438C359.827 235.886 359.097 235.108 358.586 234.102C358.074 233.091 357.819 231.901 357.819 230.531C357.819 229.185 358.074 228.003 358.586 226.986C359.103 225.963 359.824 225.168 360.751 224.599C361.677 224.026 362.765 223.739 364.015 223.739C364.822 223.739 365.583 223.869 366.299 224.131C367.02 224.386 367.657 224.784 368.208 225.324C368.765 225.864 369.202 226.551 369.52 227.386C369.839 228.216 369.998 229.205 369.998 230.352V231.298H359.268V229.219H367.04C367.035 228.628 366.907 228.102 366.657 227.642C366.407 227.176 366.057 226.81 365.608 226.543C365.165 226.276 364.648 226.142 364.057 226.142C363.427 226.142 362.873 226.295 362.395 226.602C361.918 226.903 361.546 227.301 361.279 227.795C361.018 228.284 360.884 228.821 360.878 229.406V231.222C360.878 231.983 361.018 232.636 361.296 233.182C361.574 233.722 361.964 234.136 362.464 234.426C362.964 234.71 363.549 234.852 364.219 234.852C364.668 234.852 365.074 234.79 365.438 234.665C365.802 234.534 366.117 234.344 366.384 234.094C366.651 233.844 366.853 233.534 366.989 233.165L369.87 233.489C369.688 234.25 369.341 234.915 368.83 235.483C368.324 236.045 367.677 236.483 366.887 236.795C366.097 237.102 365.194 237.256 364.177 237.256ZM384.271 237.256C382.993 237.256 381.885 236.974 380.947 236.412C380.01 235.849 379.282 235.062 378.765 234.051C378.254 233.04 377.998 231.858 377.998 230.506C377.998 229.153 378.254 227.969 378.765 226.952C379.282 225.935 380.01 225.145 380.947 224.582C381.885 224.02 382.993 223.739 384.271 223.739C385.55 223.739 386.657 224.02 387.595 224.582C388.532 225.145 389.257 225.935 389.768 226.952C390.285 227.969 390.544 229.153 390.544 230.506C390.544 231.858 390.285 233.04 389.768 234.051C389.257 235.062 388.532 235.849 387.595 236.412C386.657 236.974 385.55 237.256 384.271 237.256ZM384.288 234.784C384.981 234.784 385.561 234.594 386.027 234.213C386.493 233.827 386.839 233.31 387.067 232.662C387.3 232.014 387.416 231.293 387.416 230.497C387.416 229.696 387.3 228.972 387.067 228.324C386.839 227.67 386.493 227.151 386.027 226.764C385.561 226.378 384.981 226.185 384.288 226.185C383.578 226.185 382.987 226.378 382.515 226.764C382.05 227.151 381.7 227.67 381.467 228.324C381.24 228.972 381.126 229.696 381.126 230.497C381.126 231.293 381.24 232.014 381.467 232.662C381.7 233.31 382.05 233.827 382.515 234.213C382.987 234.594 383.578 234.784 384.288 234.784ZM399.793 223.909V226.295H392.054V223.909H399.793ZM393.989 237V222.673C393.989 221.793 394.171 221.06 394.535 220.474C394.904 219.889 395.398 219.452 396.018 219.162C396.637 218.872 397.324 218.727 398.08 218.727C398.614 218.727 399.089 218.77 399.503 218.855C399.918 218.94 400.225 219.017 400.424 219.085L399.81 221.472C399.679 221.432 399.515 221.392 399.316 221.352C399.117 221.307 398.895 221.284 398.651 221.284C398.077 221.284 397.671 221.423 397.432 221.702C397.199 221.974 397.083 222.366 397.083 222.878V237H393.989ZM408.84 223.909V226.295H401.101V223.909H408.84ZM403.036 237V222.673C403.036 221.793 403.218 221.06 403.581 220.474C403.951 219.889 404.445 219.452 405.064 219.162C405.684 218.872 406.371 218.727 407.127 218.727C407.661 218.727 408.135 218.77 408.55 218.855C408.965 218.94 409.272 219.017 409.471 219.085L408.857 221.472C408.726 221.432 408.562 221.392 408.363 221.352C408.164 221.307 407.942 221.284 407.698 221.284C407.124 221.284 406.718 221.423 406.479 221.702C406.246 221.974 406.13 222.366 406.13 222.878V237H403.036ZM411.256 237V223.909H414.341V237H411.256ZM412.807 222.051C412.319 222.051 411.898 221.889 411.546 221.565C411.194 221.236 411.018 220.841 411.018 220.381C411.018 219.915 411.194 219.52 411.546 219.196C411.898 218.866 412.319 218.702 412.807 218.702C413.302 218.702 413.722 218.866 414.069 219.196C414.421 219.52 414.597 219.915 414.597 220.381C414.597 220.841 414.421 221.236 414.069 221.565C413.722 221.889 413.302 222.051 412.807 222.051ZM423.224 237.256C421.917 237.256 420.795 236.969 419.858 236.395C418.926 235.821 418.207 235.028 417.701 234.017C417.201 233 416.951 231.83 416.951 230.506C416.951 229.176 417.207 228.003 417.719 226.986C418.23 225.963 418.951 225.168 419.883 224.599C420.821 224.026 421.929 223.739 423.207 223.739C424.27 223.739 425.21 223.935 426.028 224.327C426.852 224.713 427.508 225.261 427.997 225.972C428.486 226.676 428.764 227.5 428.832 228.443H425.883C425.764 227.812 425.48 227.287 425.031 226.866C424.588 226.44 423.994 226.227 423.25 226.227C422.619 226.227 422.065 226.398 421.588 226.739C421.111 227.074 420.738 227.557 420.471 228.188C420.21 228.818 420.079 229.574 420.079 230.455C420.079 231.347 420.21 232.114 420.471 232.756C420.733 233.392 421.099 233.884 421.571 234.23C422.048 234.571 422.608 234.741 423.25 234.741C423.704 234.741 424.111 234.656 424.469 234.486C424.832 234.31 425.136 234.057 425.38 233.727C425.625 233.398 425.792 232.997 425.883 232.526H428.832C428.758 233.452 428.486 234.273 428.014 234.989C427.542 235.699 426.9 236.256 426.088 236.659C425.275 237.057 424.321 237.256 423.224 237.256ZM431.366 237V223.909H434.451V237H431.366ZM432.917 222.051C432.428 222.051 432.008 221.889 431.655 221.565C431.303 221.236 431.127 220.841 431.127 220.381C431.127 219.915 431.303 219.52 431.655 219.196C432.008 218.866 432.428 218.702 432.917 218.702C433.411 218.702 433.831 218.866 434.178 219.196C434.53 219.52 434.706 219.915 434.706 220.381C434.706 220.841 434.53 221.236 434.178 221.565C433.831 221.889 433.411 222.051 432.917 222.051ZM441.39 237.264C440.561 237.264 439.814 237.116 439.149 236.821C438.49 236.52 437.967 236.077 437.581 235.491C437.2 234.906 437.01 234.185 437.01 233.327C437.01 232.588 437.146 231.977 437.419 231.494C437.692 231.011 438.064 230.625 438.535 230.335C439.007 230.045 439.538 229.827 440.129 229.679C440.726 229.526 441.342 229.415 441.978 229.347C442.746 229.267 443.368 229.196 443.845 229.134C444.322 229.065 444.669 228.963 444.885 228.827C445.106 228.685 445.217 228.466 445.217 228.17V228.119C445.217 227.477 445.027 226.98 444.646 226.628C444.265 226.276 443.717 226.099 443.001 226.099C442.246 226.099 441.646 226.264 441.203 226.594C440.765 226.923 440.47 227.312 440.317 227.761L437.436 227.352C437.663 226.557 438.038 225.892 438.561 225.358C439.084 224.818 439.723 224.415 440.478 224.148C441.234 223.875 442.069 223.739 442.984 223.739C443.615 223.739 444.243 223.812 444.868 223.96C445.493 224.108 446.064 224.352 446.581 224.693C447.098 225.028 447.513 225.486 447.825 226.065C448.143 226.645 448.302 227.369 448.302 228.239V237H445.336V235.202H445.234C445.047 235.565 444.782 235.906 444.442 236.224C444.106 236.537 443.683 236.79 443.172 236.983C442.666 237.17 442.072 237.264 441.39 237.264ZM442.192 234.997C442.811 234.997 443.348 234.875 443.802 234.631C444.257 234.381 444.606 234.051 444.851 233.642C445.101 233.233 445.226 232.787 445.226 232.304V230.761C445.129 230.841 444.964 230.915 444.731 230.983C444.504 231.051 444.248 231.111 443.964 231.162C443.68 231.213 443.399 231.259 443.121 231.298C442.842 231.338 442.601 231.372 442.396 231.401C441.936 231.463 441.524 231.565 441.16 231.707C440.797 231.849 440.51 232.048 440.3 232.304C440.089 232.554 439.984 232.878 439.984 233.276C439.984 233.844 440.192 234.273 440.606 234.562C441.021 234.852 441.55 234.997 442.192 234.997ZM454.49 219.545V237H451.405V219.545H454.49ZM478.096 219.545V237H475.283L467.059 225.111H466.914V237H463.752V219.545H466.581L474.797 231.443H474.951V219.545H478.096ZM487.2 237.256C485.888 237.256 484.754 236.983 483.8 236.438C482.851 235.886 482.121 235.108 481.609 234.102C481.098 233.091 480.842 231.901 480.842 230.531C480.842 229.185 481.098 228.003 481.609 226.986C482.126 225.963 482.848 225.168 483.774 224.599C484.7 224.026 485.788 223.739 487.038 223.739C487.845 223.739 488.606 223.869 489.322 224.131C490.044 224.386 490.68 224.784 491.231 225.324C491.788 225.864 492.226 226.551 492.544 227.386C492.862 228.216 493.021 229.205 493.021 230.352V231.298H482.291V229.219H490.064C490.058 228.628 489.93 228.102 489.68 227.642C489.43 227.176 489.081 226.81 488.632 226.543C488.189 226.276 487.672 226.142 487.081 226.142C486.45 226.142 485.896 226.295 485.419 226.602C484.942 226.903 484.569 227.301 484.302 227.795C484.041 228.284 483.907 228.821 483.902 229.406V231.222C483.902 231.983 484.041 232.636 484.319 233.182C484.598 233.722 484.987 234.136 485.487 234.426C485.987 234.71 486.572 234.852 487.243 234.852C487.692 234.852 488.098 234.79 488.461 234.665C488.825 234.534 489.14 234.344 489.407 234.094C489.675 233.844 489.876 233.534 490.013 233.165L492.893 233.489C492.711 234.25 492.365 234.915 491.853 235.483C491.348 236.045 490.7 236.483 489.91 236.795C489.121 237.102 488.217 237.256 487.2 237.256ZM497.873 223.909L500.515 228.741L503.199 223.909H506.464L502.518 230.455L506.532 237H503.285L500.515 232.287L497.77 237H494.498L498.486 230.455L494.6 223.909H497.873ZM515.387 223.909V226.295H507.861V223.909H515.387ZM509.719 220.773H512.804V233.062C512.804 233.477 512.867 233.795 512.992 234.017C513.123 234.233 513.293 234.381 513.503 234.46C513.714 234.54 513.947 234.58 514.202 234.58C514.395 234.58 514.572 234.565 514.731 234.537C514.895 234.509 515.02 234.483 515.106 234.46L515.626 236.872C515.461 236.929 515.225 236.991 514.918 237.06C514.617 237.128 514.248 237.168 513.81 237.179C513.037 237.202 512.341 237.085 511.722 236.83C511.103 236.568 510.611 236.165 510.248 235.619C509.89 235.074 509.714 234.392 509.719 233.574V220.773ZM519.868 237.188C519.351 237.188 518.907 237.006 518.538 236.642C518.169 236.278 517.987 235.835 517.993 235.312C517.987 234.801 518.169 234.364 518.538 234C518.907 233.636 519.351 233.455 519.868 233.455C520.368 233.455 520.802 233.636 521.172 234C521.547 234.364 521.737 234.801 521.743 235.312C521.737 235.659 521.646 235.974 521.47 236.259C521.3 236.543 521.072 236.77 520.788 236.94C520.51 237.105 520.203 237.188 519.868 237.188ZM524.928 223.909H528.013V237.75C528.013 238.693 527.834 239.472 527.476 240.085C527.118 240.699 526.601 241.156 525.925 241.457C525.249 241.759 524.428 241.909 523.462 241.909C523.349 241.909 523.243 241.906 523.147 241.901C523.05 241.901 522.945 241.898 522.831 241.892V239.378C522.917 239.384 522.993 239.386 523.062 239.386C523.13 239.392 523.201 239.395 523.275 239.395C523.866 239.395 524.289 239.25 524.545 238.96C524.8 238.676 524.928 238.259 524.928 237.707V223.909ZM526.462 222.051C525.968 222.051 525.545 221.889 525.192 221.565C524.846 221.236 524.672 220.841 524.672 220.381C524.672 219.915 524.846 219.52 525.192 219.196C525.545 218.866 525.968 218.702 526.462 218.702C526.951 218.702 527.368 218.866 527.715 219.196C528.067 219.52 528.243 219.915 528.243 220.381C528.243 220.841 528.067 221.236 527.715 221.565C527.368 221.889 526.951 222.051 526.462 222.051ZM541.532 227.369L538.72 227.676C538.64 227.392 538.501 227.125 538.302 226.875C538.109 226.625 537.848 226.423 537.518 226.27C537.189 226.116 536.785 226.04 536.308 226.04C535.666 226.04 535.126 226.179 534.689 226.457C534.257 226.736 534.044 227.097 534.05 227.54C534.044 227.92 534.183 228.23 534.467 228.469C534.757 228.707 535.234 228.903 535.899 229.057L538.132 229.534C539.371 229.801 540.291 230.224 540.893 230.804C541.501 231.384 541.808 232.142 541.814 233.08C541.808 233.903 541.567 234.631 541.089 235.261C540.618 235.886 539.961 236.375 539.121 236.727C538.28 237.08 537.314 237.256 536.223 237.256C534.621 237.256 533.331 236.92 532.353 236.25C531.376 235.574 530.794 234.634 530.606 233.429L533.615 233.139C533.751 233.73 534.041 234.176 534.484 234.477C534.927 234.778 535.504 234.929 536.214 234.929C536.947 234.929 537.535 234.778 537.978 234.477C538.427 234.176 538.652 233.804 538.652 233.361C538.652 232.986 538.507 232.676 538.217 232.432C537.933 232.187 537.49 232 536.888 231.869L534.655 231.401C533.399 231.139 532.47 230.699 531.868 230.08C531.265 229.455 530.967 228.665 530.973 227.71C530.967 226.903 531.186 226.205 531.629 225.614C532.078 225.017 532.7 224.557 533.496 224.233C534.297 223.903 535.22 223.739 536.265 223.739C537.8 223.739 539.007 224.065 539.888 224.719C540.774 225.372 541.322 226.256 541.532 227.369ZM553.396 219.545V237H550.311V219.545H553.396ZM556.569 237V223.909H559.654V237H556.569ZM558.12 222.051C557.631 222.051 557.211 221.889 556.858 221.565C556.506 221.236 556.33 220.841 556.33 220.381C556.33 219.915 556.506 219.52 556.858 219.196C557.211 218.866 557.631 218.702 558.12 218.702C558.614 218.702 559.035 218.866 559.381 219.196C559.733 219.52 559.91 219.915 559.91 220.381C559.91 220.841 559.733 221.236 559.381 221.565C559.035 221.889 558.614 222.051 558.12 222.051ZM562.963 237V219.545H566.048V226.074H566.176C566.335 225.756 566.559 225.418 566.849 225.06C567.139 224.696 567.531 224.386 568.025 224.131C568.52 223.869 569.15 223.739 569.917 223.739C570.929 223.739 571.841 223.997 572.653 224.514C573.471 225.026 574.119 225.784 574.596 226.79C575.079 227.79 575.321 229.017 575.321 230.472C575.321 231.909 575.085 233.131 574.613 234.136C574.142 235.142 573.5 235.909 572.687 236.438C571.875 236.966 570.954 237.23 569.926 237.23C569.176 237.23 568.554 237.105 568.059 236.855C567.565 236.605 567.167 236.304 566.866 235.952C566.571 235.594 566.341 235.256 566.176 234.938H565.997V237H562.963ZM565.988 230.455C565.988 231.301 566.108 232.043 566.346 232.679C566.591 233.315 566.94 233.812 567.395 234.17C567.855 234.523 568.412 234.699 569.065 234.699C569.747 234.699 570.318 234.517 570.778 234.153C571.238 233.784 571.585 233.281 571.818 232.645C572.057 232.003 572.176 231.273 572.176 230.455C572.176 229.642 572.059 228.92 571.826 228.29C571.594 227.659 571.247 227.165 570.787 226.807C570.326 226.449 569.753 226.27 569.065 226.27C568.406 226.27 567.846 226.443 567.386 226.79C566.926 227.136 566.576 227.622 566.338 228.247C566.105 228.872 565.988 229.608 565.988 230.455ZM577.944 237V223.909H580.935V226.091H581.072C581.31 225.335 581.719 224.753 582.299 224.344C582.884 223.929 583.552 223.722 584.302 223.722C584.472 223.722 584.662 223.73 584.873 223.747C585.089 223.759 585.268 223.778 585.41 223.807V226.645C585.279 226.599 585.072 226.56 584.787 226.526C584.509 226.486 584.239 226.466 583.978 226.466C583.415 226.466 582.91 226.588 582.461 226.832C582.018 227.071 581.668 227.403 581.412 227.83C581.157 228.256 581.029 228.747 581.029 229.304V237H577.944ZM590.992 237.264C590.162 237.264 589.415 237.116 588.751 236.821C588.091 236.52 587.569 236.077 587.182 235.491C586.802 234.906 586.611 234.185 586.611 233.327C586.611 232.588 586.748 231.977 587.02 231.494C587.293 231.011 587.665 230.625 588.137 230.335C588.608 230.045 589.14 229.827 589.731 229.679C590.327 229.526 590.944 229.415 591.58 229.347C592.347 229.267 592.969 229.196 593.447 229.134C593.924 229.065 594.27 228.963 594.486 228.827C594.708 228.685 594.819 228.466 594.819 228.17V228.119C594.819 227.477 594.628 226.98 594.248 226.628C593.867 226.276 593.319 226.099 592.603 226.099C591.847 226.099 591.248 226.264 590.804 226.594C590.367 226.923 590.072 227.312 589.918 227.761L587.037 227.352C587.265 226.557 587.64 225.892 588.162 225.358C588.685 224.818 589.324 224.415 590.08 224.148C590.836 223.875 591.671 223.739 592.586 223.739C593.216 223.739 593.844 223.812 594.469 223.96C595.094 224.108 595.665 224.352 596.182 224.693C596.699 225.028 597.114 225.486 597.427 226.065C597.745 226.645 597.904 227.369 597.904 228.239V237H594.938V235.202H594.836C594.648 235.565 594.384 235.906 594.043 236.224C593.708 236.537 593.285 236.79 592.773 236.983C592.268 237.17 591.674 237.264 590.992 237.264ZM591.793 234.997C592.412 234.997 592.949 234.875 593.404 234.631C593.858 234.381 594.208 234.051 594.452 233.642C594.702 233.233 594.827 232.787 594.827 232.304V230.761C594.731 230.841 594.566 230.915 594.333 230.983C594.106 231.051 593.85 231.111 593.566 231.162C593.282 231.213 593.001 231.259 592.722 231.298C592.444 231.338 592.202 231.372 591.998 231.401C591.537 231.463 591.126 231.565 590.762 231.707C590.398 231.849 590.111 232.048 589.901 232.304C589.691 232.554 589.586 232.878 589.586 233.276C589.586 233.844 589.793 234.273 590.208 234.562C590.623 234.852 591.151 234.997 591.793 234.997ZM601.006 237V223.909H603.998V226.091H604.134C604.373 225.335 604.782 224.753 605.361 224.344C605.947 223.929 606.614 223.722 607.364 223.722C607.535 223.722 607.725 223.73 607.935 223.747C608.151 223.759 608.33 223.778 608.472 223.807V226.645C608.341 226.599 608.134 226.56 607.85 226.526C607.572 226.486 607.302 226.466 607.04 226.466C606.478 226.466 605.972 226.588 605.523 226.832C605.08 227.071 604.731 227.403 604.475 227.83C604.219 228.256 604.091 228.747 604.091 229.304V237H601.006ZM612.838 241.909C612.417 241.909 612.028 241.875 611.67 241.807C611.318 241.744 611.037 241.67 610.826 241.585L611.542 239.182C611.991 239.313 612.392 239.375 612.744 239.369C613.096 239.364 613.406 239.253 613.673 239.037C613.946 238.827 614.176 238.474 614.363 237.98L614.628 237.273L609.88 223.909H613.153L616.17 233.795H616.307L619.332 223.909H622.613L617.372 238.585C617.128 239.278 616.804 239.872 616.4 240.366C615.997 240.866 615.503 241.247 614.917 241.509C614.338 241.776 613.645 241.909 612.838 241.909ZM637.332 223.909V226.295H629.594V223.909H637.332ZM631.528 237V222.673C631.528 221.793 631.71 221.06 632.074 220.474C632.443 219.889 632.937 219.452 633.557 219.162C634.176 218.872 634.863 218.727 635.619 218.727C636.153 218.727 636.628 218.77 637.042 218.855C637.457 218.94 637.764 219.017 637.963 219.085L637.349 221.472C637.219 221.432 637.054 221.392 636.855 221.352C636.656 221.307 636.434 221.284 636.19 221.284C635.616 221.284 635.21 221.423 634.971 221.702C634.738 221.974 634.622 222.366 634.622 222.878V237H631.528ZM644.966 237.256C643.688 237.256 642.58 236.974 641.643 236.412C640.705 235.849 639.978 235.062 639.461 234.051C638.949 233.04 638.694 231.858 638.694 230.506C638.694 229.153 638.949 227.969 639.461 226.952C639.978 225.935 640.705 225.145 641.643 224.582C642.58 224.02 643.688 223.739 644.966 223.739C646.245 223.739 647.353 224.02 648.29 224.582C649.228 225.145 649.952 225.935 650.464 226.952C650.981 227.969 651.239 229.153 651.239 230.506C651.239 231.858 650.981 233.04 650.464 234.051C649.952 235.062 649.228 235.849 648.29 236.412C647.353 236.974 646.245 237.256 644.966 237.256ZM644.983 234.784C645.677 234.784 646.256 234.594 646.722 234.213C647.188 233.827 647.535 233.31 647.762 232.662C647.995 232.014 648.111 231.293 648.111 230.497C648.111 229.696 647.995 228.972 647.762 228.324C647.535 227.67 647.188 227.151 646.722 226.764C646.256 226.378 645.677 226.185 644.983 226.185C644.273 226.185 643.682 226.378 643.211 226.764C642.745 227.151 642.395 227.67 642.162 228.324C641.935 228.972 641.822 229.696 641.822 230.497C641.822 231.293 641.935 232.014 642.162 232.662C642.395 233.31 642.745 233.827 643.211 234.213C643.682 234.594 644.273 234.784 644.983 234.784ZM653.858 237V223.909H656.849V226.091H656.986C657.224 225.335 657.633 224.753 658.213 224.344C658.798 223.929 659.466 223.722 660.216 223.722C660.386 223.722 660.576 223.73 660.787 223.747C661.003 223.759 661.182 223.778 661.324 223.807V226.645C661.193 226.599 660.986 226.56 660.701 226.526C660.423 226.486 660.153 226.466 659.892 226.466C659.329 226.466 658.824 226.588 658.375 226.832C657.932 227.071 657.582 227.403 657.326 227.83C657.071 228.256 656.943 228.747 656.943 229.304V237H653.858ZM671.704 237H668.329L674.474 219.545H678.378L684.531 237H681.156L676.494 223.125H676.358L671.704 237ZM671.815 230.156H681.02V232.696H671.815V230.156ZM689.216 223.909L691.858 228.741L694.543 223.909H697.807L693.861 230.455L697.876 237H694.628L691.858 232.287L689.114 237H685.841L689.83 230.455L685.944 223.909H689.216ZM700.194 237V223.909H703.279V237H700.194ZM701.745 222.051C701.256 222.051 700.836 221.889 700.483 221.565C700.131 221.236 699.955 220.841 699.955 220.381C699.955 219.915 700.131 219.52 700.483 219.196C700.836 218.866 701.256 218.702 701.745 218.702C702.239 218.702 702.66 218.866 703.006 219.196C703.358 219.52 703.535 219.915 703.535 220.381C703.535 220.841 703.358 221.236 703.006 221.565C702.66 221.889 702.239 222.051 701.745 222.051ZM712.162 237.256C710.883 237.256 709.775 236.974 708.838 236.412C707.9 235.849 707.173 235.062 706.656 234.051C706.145 233.04 705.889 231.858 705.889 230.506C705.889 229.153 706.145 227.969 706.656 226.952C707.173 225.935 707.9 225.145 708.838 224.582C709.775 224.02 710.883 223.739 712.162 223.739C713.44 223.739 714.548 224.02 715.486 224.582C716.423 225.145 717.148 225.935 717.659 226.952C718.176 227.969 718.434 229.153 718.434 230.506C718.434 231.858 718.176 233.04 717.659 234.051C717.148 235.062 716.423 235.849 715.486 236.412C714.548 236.974 713.44 237.256 712.162 237.256ZM712.179 234.784C712.872 234.784 713.451 234.594 713.917 234.213C714.383 233.827 714.73 233.31 714.957 232.662C715.19 232.014 715.307 231.293 715.307 230.497C715.307 229.696 715.19 228.972 714.957 228.324C714.73 227.67 714.383 227.151 713.917 226.764C713.451 226.378 712.872 226.185 712.179 226.185C711.469 226.185 710.878 226.378 710.406 226.764C709.94 227.151 709.591 227.67 709.358 228.324C709.13 228.972 709.017 229.696 709.017 230.497C709.017 231.293 709.13 232.014 709.358 232.662C709.591 233.31 709.94 233.827 710.406 234.213C710.878 234.594 711.469 234.784 712.179 234.784ZM721.053 237V223.909H724.002V226.134H724.155C724.428 225.384 724.88 224.798 725.51 224.378C726.141 223.952 726.894 223.739 727.769 223.739C728.655 223.739 729.402 223.955 730.01 224.386C730.624 224.812 731.056 225.395 731.306 226.134H731.442C731.732 225.406 732.221 224.827 732.908 224.395C733.601 223.957 734.422 223.739 735.371 223.739C736.576 223.739 737.559 224.119 738.32 224.881C739.081 225.642 739.462 226.753 739.462 228.213V237H736.368V228.69C736.368 227.878 736.152 227.284 735.721 226.909C735.289 226.528 734.76 226.338 734.135 226.338C733.391 226.338 732.809 226.571 732.388 227.037C731.974 227.497 731.766 228.097 731.766 228.835V237H728.741V228.562C728.741 227.886 728.536 227.347 728.127 226.943C727.724 226.54 727.195 226.338 726.542 226.338C726.099 226.338 725.695 226.452 725.331 226.679C724.968 226.901 724.678 227.216 724.462 227.625C724.246 228.028 724.138 228.5 724.138 229.04V237H721.053Z" fill="#09101F"/>
<path d="M129.863 347.597L120.062 337.804L121.673 336.185L131.474 345.986L129.863 347.597ZM121.673 347.597L120.062 345.986L129.863 336.185L131.474 337.804L121.673 347.597Z" fill="#20294F"/>
</g>
<rect x="0.786865" y="0.5" width="1065.67" height="399" stroke="#E0E0E0"/>
<defs>
<filter id="filter0_d_75_3" x="130.166" y="29.6461" width="835.175" height="207.104" filterUnits="userSpaceOnUse" color-interpolation-filters="sRGB">
<feFlood flood-opacity="0" result="BackgroundImageFix"/>
<feColorMatrix in="SourceAlpha" type="matrix" values="0 0 0 0 0 0 0 0 0 0 0 0 0 0 0 0 0 0 127 0" result="hardAlpha"/>
<feOffset dy="4"/>
<feGaussianBlur stdDeviation="16"/>
<feComposite in2="hardAlpha" operator="out"/>
<feColorMatrix type="matrix" values="0 0 0 0 0.1375 0 0 0 0 0.328673 0 0 0 0 1 0 0 0 1 0"/>
<feBlend mode="normal" in2="BackgroundImageFix" result="effect1_dropShadow_75_3"/>
<feBlend mode="normal" in="SourceGraphic" in2="effect1_dropShadow_75_3" result="shape"/>
</filter>
<linearGradient id="paint0_linear_75_3" x1="19.7213" y1="116.647" x2="-2.87256" y2="156.473" gradientUnits="userSpaceOnUse">
<stop stop-color="#6A68FF"/>
<stop offset="1" stop-color="#6C7EFF" stop-opacity="0"/>
</linearGradient>
<linearGradient id="paint1_linear_75_3" x1="-3.64529e+13" y1="177.186" x2="-3.64529e+13" y2="124.542" gradientUnits="userSpaceOnUse">
<stop stop-color="#6A68FF"/>
<stop offset="1" stop-color="#6C7EFF" stop-opacity="0"/>
</linearGradient>
<linearGradient id="paint2_linear_75_3" x1="-3.64529e+13" y1="199.779" x2="-3.64529e+13" y2="147.135" gradientUnits="userSpaceOnUse">
<stop stop-color="#6A68FF"/>
<stop offset="1" stop-color="#6C7EFF" stop-opacity="0"/>
</linearGradient>
<linearGradient id="paint3_linear_75_3" x1="3.64529e+13" y1="-225668" x2="3.64529e+13" y2="-225616" gradientUnits="userSpaceOnUse">
<stop stop-color="#6A68FF"/>
<stop offset="1" stop-color="#6C7EFF" stop-opacity="0"/>
</linearGradient>
<linearGradient id="paint4_linear_75_3" x1="3.64529e+13" y1="-225668" x2="3.64529e+13" y2="-225616" gradientUnits="userSpaceOnUse">
<stop stop-color="#6A68FF"/>
<stop offset="1" stop-color="#6C7EFF" stop-opacity="0"/>
</linearGradient>
<radialGradient id="paint5_radial_75_3" cx="0" cy="0" r="1" gradientUnits="userSpaceOnUse" gradientTransform="translate(533.5 199.694) rotate(90) scale(199.694 269.511)">
<stop stop-color="white"/>
<stop offset="1" stop-color="#D9D9D9" stop-opacity="0"/>
</radialGradient>
<radialGradient id="paint6_radial_75_3" cx="0" cy="0" r="1" gradientUnits="userSpaceOnUse" gradientTransform="translate(751.268 175.773) rotate(170.745) scale(412.464 9184.71)">
<stop stop-color="#0D0F26"/>
<stop offset="0.622778" stop-color="#384382"/>
<stop offset="0.773151" stop-color="#504F79"/>
<stop offset="1" stop-color="#0D0F26"/>
</radialGradient>
<clipPath id="clip0_75_3">
<rect x="0.286865" width="1066.67" height="400" fill="white"/>
</clipPath>
<clipPath id="clip1_75_3">
<rect width="1085" height="458" fill="white" transform="translate(-9 -29)"/>
</clipPath>
<clipPath id="clip2_75_3">
<rect width="40.1" height="40.1" fill="white" transform="translate(163 322)"/>
</clipPath>
</defs>
</svg>
